<?xml version="1.0" encoding="utf-8"?>
<!-- Generator: Adobe Illustrator 21.0.0, SVG Export Plug-In . SVG Version: 6.00 Build 0)  -->
<svg version="1.1" id="Calque_1" xmlns="http://www.w3.org/2000/svg" xmlns:xlink="http://www.w3.org/1999/xlink" x="0px" y="0px"
	 viewBox="0 0 500 500" style="enable-background:new 0 0 500 500;" xml:space="preserve">
<style type="text/css">
	.st0{display:none;}
	.st1{display:inline;}
	.st2{fill:#020203;}
</style>
<g id="Page-1" class="st0">
	<g id="Artboard-Copy-4" transform="translate(-30.000000, -757.000000)" class="st1">
		<polygon id="Shape-Copy" class="st2" points="420.7,827.2 367.5,772.5 139.3,1007 367.5,1241.5 420.7,1186.8 245.8,1007 		"/>
	</g>
</g>
<g id="Page-1_1_" class="st0">
	<g id="Artboard-Copy-4_1_" transform="translate(-30.000000, -757.000000)" class="st1">
		<polygon id="Shape-Copy_1_" class="st2" points="139.3,1186.8 192.5,1241.5 420.7,1007 192.5,772.5 139.3,827.2 314.2,1007 		"/>
	</g>
</g>
<g id="Page-1_2_" class="st0">
	<g id="Artboard-Copy-4_2_" transform="translate(-30.000000, -757.000000)" class="st1">
		<polygon id="Shape-Copy_2_" class="st2" points="459.8,1147.7 514.5,1094.5 280,866.3 45.5,1094.5 100.2,1147.7 280,972.8 		"/>
	</g>
</g>
<g id="Page-1_3_" class="st0">
	<g id="Artboard-Copy-4_3_" transform="translate(-30.000000, -757.000000)" class="st1">
		<polygon id="Shape-Copy_3_" class="st2" points="100.2,866.3 45.5,919.5 280,1147.7 514.5,919.5 459.8,866.3 280,1041.2 		"/>
	</g>
</g>
<g id="Page-1_4_" class="st0">
	<g id="Artboard-Copy-4_4_" transform="translate(-421.000000, -684.000000)" class="st1">
		<g id="Group-7" transform="translate(421.000000, 684.000000)">
			<path id="Shape" d="M248.9,35c-1.1,2.6-5,14.5-8.9,26.7c-3.7,12.1-10,32-14.1,44.1c-11.7,36.4-27.6,87.3-27.6,88.2
				c0,0.6-40.2,1.1-89.2,1.3L20,195.8l19.2,13.8c27.2,19.3,121,86.8,121.8,87.3c0.4,0.4-4.3,17.8-10.4,39
				c-30.9,105.9-37.2,127.4-38.3,131.1c-1.3,4,3.3,0.6,94.9-70.2c20.7-16,39-30.1,40.9-31.2c2.8-1.7,11.5,4.4,55.9,39.2
				c28.9,22.4,60,46.7,68.8,53.7c10.4,7.9,16.1,11.4,15.5,9.2c-0.6-1.8-2.8-9.2-4.8-16.2c-2-7.2-5-17.5-6.5-23
				c-1.5-5.5-4.1-14.9-5.6-20.8c-17.8-64.7-28.7-103.5-29.6-106.1c-1.7-4-1.5-4,72.7-58.1l65.3-47.6l-87-0.6l-87-0.4l-0.9-4.2
				c-0.4-2.2-11.8-35.8-25.3-74.8c-13.3-39-25.3-74.1-26.6-78.1C250.7,30.6,250.7,30.4,248.9,35L248.9,35z"/>
		</g>
	</g>
</g>
<g id="Symbols">
	<g id="people" transform="translate(-15.000000, -234.000000)">
		<path id="Page-1_5_" d="M265,448c55.1,0,99.8-44.7,99.8-99.8c0-55.1-44.7-99.8-99.8-99.8c-55.1,0-99.8,44.7-99.8,99.8
			C165.2,403.3,209.9,448,265,448 M352.5,441c-22.8,21.5-53.6,34.7-87.5,34.7c-33.8,0-64.6-13.2-87.4-34.7
			c-38,20.8-64,60.7-65,106.8h0v116.5c0,30.6,24.8,55.5,55.5,55.5h249.5V550.5C417.5,503.3,391.2,462.1,352.5,441"/>
	</g>
</g>
</svg>
